<?xml version="1.0" encoding="UTF-8"?>
<svg id="Layer_1" xmlns="http://www.w3.org/2000/svg" version="1.1" viewBox="0 0 595.28 841.89">
  <!-- Generator: Adobe Illustrator 29.2.1, SVG Export Plug-In . SVG Version: 2.1.0 Build 116)  -->
  <defs>
    <style>
      .st0 {
        fill: #fff;
      }
    </style>
  </defs>
  <path class="st0" d="M265.1,297.6c-3.65,7.99-8.56,15.48-10.69,24.12-3.2,12.98-1.99,29.63,7.69,39.53-.51-27.59,26.86-49.67,53.56-47.96,22.37,1.43,20.68,22.48,10.69,36.96-18.83,27.29-62.04,43.52-93.27,51.22-23.02,5.68-77.26,14.74-72.69-24.04,2.35-19.96,24.73-42.42,38.57-55.82l4.29,2.89.42,1.88c-12.03,11.43-32.46,35.42-29.7,53.04,4.39,28.03,56.61,15.95,74.67,10.66,23.51-6.88,71.34-24.29,74.65-52.63.77-6.62.2-10.53-5.86-13.94-16.86-9.47-43.44,9.45-47.48,26.46-2.02,8.49-1.32,18.12,1.91,26.24-22.89-6.26-32.12-32.76-24.54-54.12.92-2.6,14.16-28.07,17.79-24.5h-.01Z"/>
  <path class="st0" d="M323.5,362.74c3.74-2.82,6.36-8.88,9.23-11.73,3.63-3.6,13.82-8.8,18.7-12.37,21.22-15.53,68.61-53.91,66.42-82.65-.76-9.96-8.9-15.84-17.97-17.97-30.15-7.07-86.86,14.21-113.56,29.48-10.38,5.93-21.71,13.81-25.71,25.59-3.97-3.66.29-11.08,3.02-14.58,16.84-21.62,85.55-45.78,112.74-49.72,21.96-3.18,61.87-3.37,54.41,29.72-7.75,34.41-59.48,74.39-88.18,93.01-6.15,3.99-12.47,8.05-19.1,11.21h0Z"/>
  <path class="st0" d="M242.65,242.18c-16.25-4.34-54.23-11.54-65.45,4.54-13.19,18.91,16.01,51.42,29.06,64.05,9.71,9.4,20.58,17.85,31.52,25.77v7.48c-21.6-16.01-44.53-33.57-60.98-55.06-14.11-18.42-30.75-52.22,3.57-60.04,15.12-3.45,47.11.06,61.53,6.14.68.29,1.9.62,2.03,1.46,0,0-1.28,5.66-1.28,5.66Z"/>
  <path class="st0" d="M251.71,401.76l4.81-1.33c1.66.15,3.83,10.07,4.65,12.32,6.43,17.81,23.3,55.9,47.72,36.85,22-17.16,29.09-64.35,33.07-90.43l6.24-3.91c-3.75,30.39-8.28,65.01-23.82,91.87-34.01,58.82-68.36-9.32-72.67-45.37Z"/>
  <path class="st0" d="M334.04,233.13c-2.08-7.5-4.34-15.01-7.42-22.17-7.49-17.43-23.57-43.07-44.65-25.68-15.61,12.87-23.69,43.54-27.86,62.74-.95,4.38-2.03,17.09-4.34,19.62-.42.47-5.4,3.99-5.62,3.73,3.27-23.59,7.1-47.48,16.11-69.62,10.09-24.78,31.12-55.59,56.88-25.5,7.89,9.22,14.27,24.31,18.12,35.8,1.32,3.93,5.17,15.25,5.33,18.67.1,2.11-4.93,2.43-6.55,2.4h0Z"/>
  <path class="st0" d="M397.34,325.57c13.94,13.39,40.18,44.08,33.24,64.56-6.95,20.49-41.15,17.11-57.81,14.33-8.29-1.38-16.37-3.82-24.51-5.81l.7-6.69c17.09,3.68,38.43,8.87,55.37,2.61,32.68-12.08-1.95-55.26-16.44-68.91l4.2-4.05c.5-.09,4.57,3.3,5.25,3.96h0Z"/>
  <path class="st0" d="M444.76,501.3v4.49H149.08c-.03-1.61-.39-3.46,1.12-4.49h294.56Z"/>
  <path class="st0" d="M150.58,549.23v-4.49h294.56c1.49,0,1.49,4.49,0,4.49H150.58Z"/>
  <path class="st0" d="M235.91,576.94v7.49h-26.57c-.15,0-2.2,1.54-2.38,1.73-2.17,2.46-1.79,6.44-1.74,9.5,8.81-1.7,27.39-4.02,34.08,2.97,7.56,7.91,4.22,25.31-7.58,26.92-4.34.59-18.8.65-22.97-.11-7.27-1.32-10.46-8.6-11.02-15.19-.65-7.59-1.13-23.64,4.45-29.22,1.4-1.4,6.89-4.09,8.64-4.09h25.09ZM234.15,603.41c-.99-.99-2.41-1.62-3.82-1.79-2.83-.35-18.71-.43-20.83.19-5.13,1.5-6.01,12.49-1.67,15.59,2.96,2.11,20.56,2.15,24.02.79,5.07-1.99,5.57-11.5,2.3-14.77h0Z"/>
  <path class="st0" d="M287.57,576.94v7.49h-26.57c-.15,0-2.2,1.54-2.38,1.73-2.17,2.46-1.79,6.43-1.74,9.5,9.81-1.88,33.25-5.09,36.92,7.62,2.65,9.18-.24,21.12-11.1,22.34-4.49.5-18.06.59-22.29-.18-3.8-.69-8.72-5.16-9.92-8.8-1.81-5.52-1.77-24.44-.01-29.99,1.5-4.73,7.02-9.71,12-9.71h25.09ZM285.8,603.41c-.99-.99-2.41-1.62-3.82-1.79-2.83-.35-18.71-.43-20.83.19-5.13,1.5-6.01,12.49-1.67,15.59,2.96,2.11,20.56,2.15,24.02.79,5.07-1.99,5.57-11.5,2.3-14.77h0Z"/>
  <path class="st0" d="M360.18,618.87h38.18v6.74h-44.91v-17.6c0-.83,3.43-5.86,4.47-6.76,6.84-5.9,18.97-2.36,27.36-3.33,8.96-1.04,5.7-13.5,1.48-13.5h-33.31v-7.49h32.56c.97,0,5.24,1.95,6.31,2.67,9.58,6.45,6.87,22.84-4.24,24.86-12.21,2.22-31.08-6.53-27.9,14.4h0Z"/>
  <polygon class="st0" points="348.95 576.94 308.52 625.23 299.55 625.24 333.98 584.42 301.79 584.42 301.79 576.94 348.95 576.94"/>
  <path class="st0" d="M336.97,258.66l-16.45,10.12-24.4,11.58c2.52,5.78,1.66,12.76-5.93,12.76-2.33,0-4.89-2.09-5.26-2.07-1.45.05-11.32,10.98-13.08,9.54,7.04-8.12,10.93-19.04,20.27-25.02,6.12-3.92,15.56-6.16,22.58-8.86,7.32-2.81,14.4-7.07,22.27-8.04h0ZM291.68,283.38l-4.54,5.2c-.89,3.58,9.82.77,4.54-5.2Z"/>
  <path class="st0" d="M385.25,512.53c1,.22,3.84,2.8,4.42,3.81,3.75,6.52-2.75,12.04-9.29,11.54l10.48,10.86c-1.32-.09-2.83.24-4.1,0-2.81-.56-12.53-12.33-15.36-14.96h12.35c4.05,0,3.4-7.49.75-7.49h-14.6v22.47h-3.74v-26.21c5.46.81,14.06-1.09,19.09,0v-.02Z"/>
  <polygon class="st0" points="294.3 532 294.3 512.53 298.05 512.53 298.05 538.74 293.89 538.03 277.09 519.27 277.09 538.74 273.34 538.74 273.34 512.53 277.83 512.91 294.3 532"/>
  <path class="st0" d="M445.51,512.53v3.74h-18.34c-1.25,0-4.02,4.54-.67,6.67,4.93,3.12,18.81-3.47,19.08,7.94.07,3-2.69,7.86-5.68,7.86h-19.09v-3.74h18.34c1.6,0,5.61-6.72-1.48-7.49-5.58-.6-16.4,2.08-16.81-7.18-.11-2.52,3.33-7.8,5.57-7.8h19.09,0Z"/>
  <path class="st0" d="M232.17,512.53v3.74h-18.34c-1.25,0-4.02,4.54-.67,6.67,4.94,3.13,17.98-3.38,18.97,7.28.29,3.14-2.35,8.52-5.58,8.52h-19.09v-3.74h18.34c1.6,0,5.61-6.72-1.48-7.49-5.88-.63-16.13,2.18-16.83-7.21-.2-2.71,2.9-7.77,5.59-7.77h19.09Z"/>
  <path class="st0" d="M252.93,511.95c7.09-1.45,14.79,1.56,17.23,8.64,4.69,13.66-10.22,24.4-21.76,16.53-9.48-6.47-6.62-22.89,4.53-25.17h0ZM249.64,518.03c-11.04,11.11,7.59,25.81,15.81,13.19,6.89-10.59-7.81-21.24-15.81-13.19Z"/>
  <path class="st0" d="M345,511.95c22.33-4.57,24.78,27.58,4.32,27.58-9.9,0-15.03-7.47-13.86-16.91.5-4.1,5.54-9.85,9.54-10.67h0ZM346.5,515.7c-9.97,2.07-9.75,18.38.63,19.99,16.84,2.61,16.24-23.5-.63-19.99Z"/>
  <path class="st0" d="M397.6,527.51v11.23h-3.74v-26.21h19.09c1.82,0,5.62,4.83,5.64,7.1.02,2.52-3.35,7.88-5.64,7.88h-15.35ZM397.6,523.76h13.85c4.05,0,3.4-7.49.75-7.49h-14.6v7.49Z"/>
  <path class="st0" d="M181.27,512.53v14.6c0,3.93,5.61,7.8,9.39,7.9,2.78.07,9.33-3.81,9.33-6.41v-16.1h3.74v16.85c0,.68-3.34,5.47-4.23,6.25-5.84,5.09-15.37,3.82-19.6-2.63-.43-.65-2.37-4.79-2.37-5.12v-15.35h3.74Z"/>
  <path class="st0" d="M336.22,512.53v3.74h-13.85c-3.79,0-7.42,6.33-7.16,10.1.25,3.51,4.45,8.62,7.91,8.62h13.1v3.74h-14.6c-2.02,0-6.59-3.89-7.86-5.62-3.15-4.3-3.28-10.11-.33-14.55,1.23-1.85,6.07-6.04,8.18-6.04h14.61Z"/>
  <polygon class="st0" points="173.78 512.53 173.78 516.27 155.07 516.27 155.07 538.74 151.33 538.74 151.33 512.53 173.78 512.53"/>
  <rect class="st0" x="235.91" y="512.53" width="3.74" height="26.21"/>
  <rect class="st0" x="158.81" y="523.76" width="14.97" height="3.74"/>
</svg>